<svg width="58" height="58" viewBox="0 0 58 58" fill="none" xmlns="http://www.w3.org/2000/svg">
<path fill-rule="evenodd" clip-rule="evenodd" d="M18.0609 3.29365C19.8479 5.81119 19.8427 5.82443 16.1087 8.40818C12.9385 10.6009 10.2205 15.101 10.1932 18.2029C10.19 18.5675 18.7067 18.865 29.1198 18.865C39.5328 18.865 48.0495 18.5675 48.0463 18.2029C48.019 15.101 45.301 10.6009 42.1308 8.40818C38.3969 5.82443 38.3916 5.81119 40.1787 3.29365L41.9699 0.769043L39.7253 2.88141C37.7132 4.77398 36.6109 4.99378 29.1198 4.99378C21.6287 4.99378 20.5263 4.77398 18.5142 2.88141L16.2696 0.769043L18.0609 3.29365ZM21.757 12.3178C21.757 13.0866 21.1953 13.5589 20.5085 13.3665C18.5573 12.8209 18.2344 10.9204 20.0919 10.9204C21.0081 10.9204 21.757 11.5498 21.757 12.3178ZM39.3971 11.9691C38.7471 13.6057 36.4825 13.8767 36.4825 12.3178C36.4825 11.5498 37.2314 10.9204 38.1476 10.9204C39.0637 10.9204 39.6264 11.3918 39.3971 11.9691ZM2.03524 20.3321C1.09596 20.6499 0.720459 23.5276 0.720459 30.3969C0.720459 39.9949 0.72677 40.0178 3.42681 40.5872C7.52893 41.4505 8.57444 39.7971 8.95836 31.8411C9.45482 21.5538 7.58888 18.4519 2.03524 20.3321ZM10.9116 20.3162C10.513 20.6507 10.1869 26.1722 10.1869 32.5861C10.1869 44.9849 10.494 45.7909 15.446 46.3655C17.8537 46.6453 18.1019 47.0929 18.388 51.6681C18.7161 56.9079 20.0793 58.2709 23.9584 57.2381C25.4489 56.8409 25.9306 55.6368 26.1767 51.7007C26.4702 46.994 26.6595 46.6709 29.1198 46.6709C31.5779 46.6709 31.7693 46.9967 32.0617 51.6681C32.3899 56.9079 33.753 58.2709 37.6322 57.2381C39.1226 56.8409 39.6044 55.6368 39.8505 51.7007C40.145 46.9808 40.3375 46.6542 42.9797 46.3982C47.7139 45.9383 48.1378 44.6777 47.8212 31.9841L47.5267 20.1891L29.5815 19.9481C19.7122 19.8157 11.3113 19.9816 10.9116 20.3162ZM50.0437 22.1752C48.6206 25.2815 49.2391 38.7529 50.8684 40.1184C51.5857 40.7205 53.2434 40.9173 54.8127 40.5872C57.5127 40.0178 57.5191 39.9931 57.5191 30.4181C57.5191 22.4798 57.2309 20.7267 55.8551 20.2835C52.6817 19.2613 51.1503 19.7601 50.0437 22.1752Z" fill="white"/>
</svg>
