<svg width="58" height="58" viewBox="0 0 58 58" fill="none" xmlns="http://www.w3.org/2000/svg">
<path fill-rule="evenodd" clip-rule="evenodd" d="M0.86973 2.55638C0.364248 3.8733 0.177636 16.7328 0.454836 31.1338C0.876977 52.9745 1.41145 57.3165 3.67796 57.3165C5.93723 57.3165 6.48076 53.123 6.89928 32.4598L7.40295 7.60308L32.264 7.0995C52.9308 6.68105 57.125 6.13762 57.125 3.87874C57.125 1.60356 52.621 1.08005 29.4576 0.661601C7.83053 0.270327 1.589 0.683338 0.86973 2.55638ZM27.3994 17.6838C25.6202 22.5983 23.2649 24.9803 17.9945 27.1939C13.3926 29.1249 10.9558 31.3186 10.9431 33.5412C10.916 38.7618 21.3843 35.9106 28.5499 28.7463C35.7879 21.5078 38.5617 11.1245 33.2568 11.1245C30.8943 11.1245 29.0046 13.2403 27.3994 17.6838Z" fill="white"/>
</svg>
