<svg width="58" height="58" viewBox="0 0 58 58" fill="none" xmlns="http://www.w3.org/2000/svg">
<path fill-rule="evenodd" clip-rule="evenodd" d="M0.502732 5.68998C0.61633 8.39739 1.75636 19.8712 3.03838 31.1894L5.36915 51.7679L17.0332 55.1105C28.4213 58.3745 28.973 58.3745 40.3611 55.1105L52.0251 51.7679L54.3559 31.1894C55.6379 19.8712 56.778 8.39739 56.8916 5.68998L57.0964 0.769043H28.6971H0.297852L0.502732 5.68998ZM46.9538 14.1075C46.9538 16.0758 43.6169 16.8399 33.2816 17.239C22.1592 17.6702 19.4836 18.352 18.9339 20.9002C18.3456 23.6255 19.9867 24.0317 31.5919 24.0317H44.9253L44.8969 29.8473C44.8482 40.0739 42.8481 43.4524 35.584 45.5675C26.5307 48.2015 15.4063 45.1828 13.7632 39.6427C11.9436 33.5049 16.1183 31.3522 20.3234 36.2607C25.1107 41.8508 35.4846 41.178 36.4461 35.2156C37.0506 31.4578 36.3467 31.1894 25.916 31.1894C19.7676 31.1894 14.3433 30.5864 13.8605 29.8473C13.3798 29.1101 12.3574 24.6812 11.5886 20.0054L10.1909 11.5056H28.5734C43.3025 11.5056 46.9538 12.0228 46.9538 14.1075Z" fill="white"/>
</svg>
