<svg width="48" height="58" viewBox="0 0 48 58" fill="none" xmlns="http://www.w3.org/2000/svg">
<g clip-path="url(#clip0_25_208)">
<path d="M39.4802 31.0794C39.4158 23.8972 45.3462 20.4491 45.6144 20.281C42.2773 15.3987 37.0837 14.7298 35.2309 14.6511C30.8136 14.204 26.6073 17.2514 24.3682 17.2514C22.1291 17.2514 18.6667 14.7155 15.0041 14.787C10.1825 14.8586 5.74371 17.5877 3.26141 21.9013C-1.74255 30.5822 1.98449 43.448 6.85611 50.4944C9.24184 53.9388 12.0818 57.8197 15.816 57.6766C19.4143 57.5335 20.7735 55.3516 25.1157 55.3516C29.458 55.3516 30.6812 57.6766 34.4834 57.6086C38.3499 57.5335 40.8036 54.089 43.1715 50.6338C45.9042 46.635 47.0344 42.7649 47.0988 42.561C47.013 42.5252 39.5589 39.6673 39.4802 31.0794Z" fill="white"/>
<path d="M32.3368 9.98983C34.3183 7.58979 35.656 4.25257 35.2876 0.92627C32.4331 1.04085 28.9781 2.82917 26.9285 5.22922C25.0937 7.35036 23.4841 10.7482 23.9203 14.0068C27.1037 14.2536 30.3549 12.3863 32.3368 9.98983Z" fill="white"/>
</g>
<defs>
<clipPath id="clip0_25_208">
<rect width="46.2345" height="56.7986" fill="white" transform="translate(0.876221 0.903564)"/>
</clipPath>
</defs>
</svg>
