<svg width="57" height="57" viewBox="0 0 57 57" fill="none" xmlns="http://www.w3.org/2000/svg">
<path d="M11.8387 0.95459L22.5292 7.48658V31.2393L33.2196 25.3011L33.8135 13.4248L45.0979 7.48658L55.7883 12.8309V25.3011L45.0979 31.2393V43.1156L22.5292 55.5858L1.14832 43.1156V7.48658L11.8387 0.95459Z" fill="white"/>
<path d="M22.5292 7.48658L11.8387 0.95459L1.14832 7.48658M22.5292 7.48658L11.8387 12.8309M22.5292 7.48658V31.2393M1.14832 7.48658V43.1156L22.5292 55.5858M1.14832 7.48658L11.8387 12.8309M22.5292 55.5858L45.0979 43.1156V31.2393M22.5292 55.5858L23.1231 43.7094M45.0979 31.2393L55.7883 25.3011V12.8309M45.0979 31.2393V19.3629M45.0979 31.2393L23.1231 43.7094M45.0979 31.2393L33.2196 25.3011M55.7883 12.8309L45.0979 19.3629M55.7883 12.8309L45.0979 7.48658L33.8135 13.4248M45.0979 19.3629L33.8135 13.4248M23.1231 43.7094L11.8387 37.7713M11.8387 37.7713V12.8309M11.8387 37.7713L22.5292 31.2393M22.5292 31.2393L33.2196 25.3011M33.2196 25.3011L33.8135 13.4248" stroke="black"/>
</svg>
