<svg width="58" height="42" viewBox="0 0 58 42" fill="none" xmlns="http://www.w3.org/2000/svg">
<path d="M28.6968 38.8215C43.3445 38.8215 55.2192 30.8884 55.2192 21.1023C55.2192 11.3164 43.3445 3.38313 28.6968 3.38313C14.049 3.38313 2.17432 11.3164 2.17432 21.1023C2.17432 30.8884 14.049 38.8215 28.6968 38.8215Z" fill="white"/>
<path d="M16.0926 23.299C17.297 23.299 18.1962 23.0061 18.7651 22.4289C19.3279 21.8576 19.7167 20.8679 19.9204 19.4872C20.1104 18.1967 20.038 17.2956 19.7054 16.8093C19.3653 16.3127 18.6299 16.0608 17.5198 16.0608H15.595L14.528 23.299H16.0926ZM9.79708 32.2151C9.70774 32.2151 9.62288 32.1624 9.56608 32.0714C9.50918 31.9804 9.48612 31.8607 9.50319 31.745L12.3311 12.5637C12.3585 12.3783 12.4818 12.2443 12.6251 12.2443H18.7201C20.6356 12.2443 22.0613 12.9299 22.9575 14.2824C23.8584 15.642 24.1367 17.5425 23.7844 19.931C23.641 20.904 23.3944 21.8078 23.0515 22.6169C22.7082 23.4269 22.2545 24.1764 21.7027 24.8449C21.0423 25.6598 20.2948 26.2507 19.483 26.5984C18.684 26.9415 17.658 27.1155 16.4334 27.1155H13.9654L13.2606 31.8956C13.2333 32.0811 13.1101 32.2151 12.9667 32.2151H9.79708Z" fill="white"/>
<path d="M15.842 16.4556H17.5199C18.8597 16.4556 19.3251 16.8431 19.4832 17.0741C19.7456 17.4576 19.7951 18.2662 19.6265 19.4123C19.437 20.6954 19.0858 21.6052 18.5825 22.1161C18.0672 22.6391 17.2294 22.9041 16.0927 22.9041H14.8913L15.842 16.4556ZM18.7201 11.8494H12.6251C12.3384 11.8494 12.0919 12.1174 12.0372 12.4884L9.20926 31.6697C9.17512 31.9012 9.22124 32.1406 9.33494 32.3226C9.44875 32.5046 9.61826 32.6099 9.79715 32.6099H12.9667C13.2535 32.6099 13.5 32.3419 13.5547 31.9709L14.2124 27.5102H16.4335C17.6895 27.5102 18.7469 27.3297 19.576 26.9737C20.4286 26.6085 21.2131 25.9893 21.9074 25.1333C22.4816 24.4369 22.9546 23.6552 23.313 22.8096C23.6715 21.9638 23.929 21.0206 24.0785 20.0062C24.4493 17.4921 24.148 15.4788 23.1831 14.0227C22.2275 12.5806 20.7259 11.8494 18.7201 11.8494ZM14.1647 23.6937H16.0927C17.3706 23.6937 18.3224 23.3764 18.9479 22.7417C19.5734 22.1069 19.9953 21.0473 20.2145 19.5626C20.4242 18.1371 20.3287 17.1311 19.9279 16.545C19.5266 15.959 18.724 15.6659 17.5199 15.6659H15.3482L14.1647 23.6937ZM18.7201 12.6391C20.5537 12.6391 21.8913 13.2734 22.7321 14.5422C23.5727 15.811 23.8259 17.582 23.4905 19.8557C23.3524 20.7923 23.1189 21.6486 22.7902 22.4244C22.461 23.2008 22.0313 23.9106 21.5002 24.5543C20.8673 25.3351 20.1642 25.8915 19.3905 26.2229C18.6168 26.5552 17.6314 26.7206 16.4335 26.7206H13.7185L12.9667 31.8202H9.79715L12.6251 12.6391H18.7201Z" fill="#2B2B2B"/>
<path d="M31.0514 27.1155C30.962 27.1155 30.8772 27.0628 30.8204 26.9718C30.7634 26.8808 30.7403 26.7612 30.7574 26.6454L32.0084 18.1584C32.1274 17.3513 32.098 16.772 31.9258 16.5272C31.8204 16.3776 31.5037 16.1266 30.5674 16.1266H28.3011L26.7283 26.7959C26.701 26.9815 26.5777 27.1155 26.4343 27.1155H23.2897C23.2003 27.1155 23.1155 27.0628 23.0586 26.9718C23.0017 26.8808 22.9787 26.7611 22.9957 26.6454L25.8237 7.46405C25.851 7.27862 25.9743 7.14464 26.1177 7.14464H29.2623C29.3517 7.14464 29.4365 7.19728 29.4934 7.28822C29.5503 7.37929 29.5733 7.49892 29.5563 7.61473L28.8738 12.2443H31.3119C33.1692 12.2443 34.4286 12.6759 35.1621 13.564C35.9099 14.47 36.1432 15.9185 35.8556 17.8699L34.5399 26.7959C34.5126 26.9815 34.3894 27.1155 34.2459 27.1155H31.0514Z" fill="white"/>
<path d="M29.2622 6.74982H26.1176C25.8308 6.74982 25.5843 7.01776 25.5296 7.38875L22.7017 26.5701C22.6675 26.8016 22.7137 27.041 22.8275 27.223C22.9413 27.405 23.1108 27.5103 23.2897 27.5103H26.4343C26.721 27.5103 26.9676 27.2423 27.0223 26.8713L28.548 16.5214H30.5674C31.5021 16.5214 31.6982 16.7846 31.7061 16.7959C31.7628 16.8763 31.8374 17.2487 31.7143 18.0831L30.4634 26.5701C30.4292 26.8016 30.4753 27.041 30.5891 27.223C30.703 27.405 30.8725 27.5103 31.0514 27.5103H34.2459C34.5326 27.5103 34.7792 27.2423 34.8339 26.8713L36.1495 17.9453C36.4583 15.8501 36.1941 14.2783 35.3647 13.2734C34.5733 12.3152 33.2476 11.8494 31.3118 11.8494H29.237L29.8502 7.69012C29.8843 7.45863 29.8382 7.21912 29.7244 7.03724C29.6106 6.85523 29.4411 6.74982 29.2622 6.74982ZM29.2622 7.53944L28.5104 12.6391H31.3118C33.0745 12.6391 34.2903 13.0447 34.9594 13.8548C35.6286 14.6655 35.8291 15.979 35.5616 17.7948L34.2459 26.7206H31.0514L32.3023 18.2338C32.4447 17.2684 32.3924 16.6098 32.1452 16.2587C31.8979 15.9076 31.3719 15.7317 30.5674 15.7317H28.0541L26.4343 26.7206H23.2897L26.1176 7.53944H29.2622Z" fill="#2B2B2B"/>
<path d="M40.8316 23.299C42.036 23.299 42.9352 23.0061 43.5041 22.4289C44.0669 21.8578 44.4557 20.868 44.6595 19.4872C44.8495 18.1967 44.7771 17.2956 44.4444 16.8093C44.1043 16.3127 43.3689 16.0608 42.2588 16.0608H40.334L39.267 23.299H40.8316ZM34.5362 32.2151C34.4468 32.2151 34.362 32.1624 34.3052 32.0714C34.2483 31.9804 34.2251 31.8607 34.2422 31.745L37.0701 12.5637C37.0976 12.3783 37.2208 12.2443 37.3642 12.2443H43.4591C45.3747 12.2443 46.8003 12.9299 47.6966 14.2824C48.5975 15.6419 48.8757 17.5424 48.5235 19.931C48.3799 20.904 48.1334 21.8078 47.7905 22.6169C47.4472 23.4269 46.9935 24.1764 46.4417 24.8449C45.7813 25.6598 45.0338 26.2507 44.222 26.5984C43.423 26.9415 42.397 27.1155 41.1724 27.1155H38.7043L37.9998 31.8956C37.9724 32.0811 37.8492 32.2151 37.7057 32.2151H34.5362Z" fill="white"/>
<path d="M40.5801 16.4556H42.258C43.5978 16.4556 44.0632 16.8431 44.2213 17.0741C44.4838 17.4576 44.5333 18.2662 44.3646 19.4122C44.1751 20.6954 43.8238 21.6052 43.3206 22.1161C42.8053 22.6391 41.9675 22.9041 40.8307 22.9041H39.6295L40.5801 16.4556ZM43.4582 11.8494H37.3633C37.0766 11.8494 36.8301 12.1174 36.7754 12.4884L33.9474 31.6697C33.9133 31.9012 33.9594 32.1406 34.0731 32.3226C34.1869 32.5046 34.3564 32.6099 34.5353 32.6099H37.7049C37.9916 32.6099 38.2382 32.3419 38.2929 31.9709L38.9505 27.5102H41.1716C42.4276 27.5102 43.485 27.3297 44.3141 26.9737C45.1667 26.6085 45.9514 25.9892 46.6457 25.1331C47.2199 24.4368 47.6927 23.6552 48.0511 22.8096C48.4096 21.9638 48.6671 21.0206 48.8166 20.0062C49.1874 17.4919 48.8861 15.4787 47.9212 14.0226C46.9656 12.5806 45.4641 11.8494 43.4582 11.8494ZM38.9028 23.6937H40.8307C42.1086 23.6937 43.0605 23.3764 43.6859 22.7417C44.3116 22.1069 44.7334 21.0473 44.9526 19.5626C45.1624 18.1371 45.0669 17.1311 44.666 16.545C44.2647 15.959 43.4621 15.6659 42.258 15.6659H40.0863L38.9028 23.6937ZM43.4582 12.6391C45.2918 12.6391 46.6294 13.2734 47.4702 14.5422C48.3109 15.811 48.564 17.582 48.2286 19.8557C48.0905 20.7923 47.857 21.6486 47.5283 22.4244C47.1991 23.2008 46.7694 23.9106 46.2383 24.5543C45.6054 25.3351 44.9023 25.8915 44.1286 26.2229C43.3549 26.5552 42.3695 26.7206 41.1716 26.7206H38.4566L37.7049 31.8202H34.5353L37.3633 12.6391H43.4582Z" fill="#2B2B2B"/>
</svg>
