<svg width="58" height="58" viewBox="0 0 58 58" fill="none" xmlns="http://www.w3.org/2000/svg">
<path fill-rule="evenodd" clip-rule="evenodd" d="M21.7793 5.27921C18.6193 9.02618 16.0611 10.0631 9.69901 10.179C2.70262 10.3072 1.54293 10.8917 0.985052 14.578C0.625871 16.9371 2.14093 21.1027 4.38581 23.9321L8.43041 29.035L4.38581 34.1378C2.14093 36.9672 0.625871 41.1329 0.985052 43.4919C1.54293 47.1783 2.70262 47.7627 9.69901 47.891C16.0611 48.0068 18.6193 49.0438 21.7793 52.7907C26.869 58.8255 31.7943 58.8255 36.884 52.7907C40.044 49.0438 42.6023 48.0068 48.9643 47.891C55.9607 47.7627 57.1204 47.1783 57.6783 43.4919C58.0375 41.1329 56.5224 36.9672 54.2775 34.1378L50.2329 29.035L54.2775 23.9321C56.5224 21.1027 58.0375 16.9371 57.6783 14.578C57.1204 10.8917 55.9607 10.3072 48.9643 10.179C42.6023 10.0631 40.044 9.02618 36.884 5.27921C34.6793 2.66542 31.2804 0.527344 29.3317 0.527344C27.3829 0.527344 23.9841 2.66542 21.7793 5.27921ZM34.0373 8.09968C36.8439 11.8342 36.7866 12.219 33.191 13.7175C30.8945 14.6743 27.7689 14.6743 25.4724 13.7175C21.8768 12.219 21.8194 11.8342 24.626 8.09968C26.2825 5.89391 28.3993 4.0908 29.3317 4.0908C30.264 4.0908 32.3809 5.89391 34.0373 8.09968ZM16.2483 18.3446C15.8834 20.7945 14.6492 23.8644 13.5029 25.1651C11.8235 27.0733 10.7613 26.7294 8.00054 23.3833C6.11866 21.1027 4.55966 17.7816 4.53674 16.0052C4.50235 13.427 5.74993 12.8872 10.7039 13.3326C16.1089 13.8172 16.8272 14.4676 16.2483 18.3446ZM54.1266 16.1175C54.1037 17.8333 52.5447 21.1027 50.6628 23.3833C47.9021 26.7294 46.8398 27.0733 45.1605 25.1651C43.2595 23.0056 41.9393 17.6569 42.4857 14.3357C42.6061 13.6017 45.2846 12.9994 48.437 12.9994C52.6383 12.9994 54.1572 13.8315 54.1266 16.1175ZM25.5106 17.4538C25.5106 17.7335 24.221 18.4248 22.6448 18.9896C20.9158 19.6079 19.779 18.9985 19.779 17.4538C19.779 15.909 20.9158 15.2996 22.6448 15.9179C24.221 16.4827 25.5106 17.174 25.5106 17.4538ZM38.8843 17.3985C38.8843 19.0537 37.7724 19.6168 35.8581 18.9308C33.4221 18.0595 33.3285 17.5553 35.3804 16.342C38.7735 14.3357 38.8843 14.3696 38.8843 17.3985ZM35.2467 22.0292C42.3482 26.7455 42.287 31.3637 35.0633 36.1619L29.3317 39.9677L23.6001 36.1619C16.4661 31.4243 16.3114 26.8524 23.1224 22.113C29.5858 17.6159 28.6095 17.623 35.2467 22.0292ZM24.3433 26.2377C22.4404 30.8612 25.1056 34.6813 29.8017 34.0594C32.9579 33.6407 34.108 32.3009 34.108 29.035C34.108 25.7691 32.9579 24.4292 29.8017 24.0105C27.2167 23.6684 25.033 24.5593 24.3433 26.2377ZM16.2789 39.7253C16.831 43.5953 16.0993 44.2527 10.7039 44.7373C3.50314 45.3859 2.54978 42.3694 7.65473 35.1018C10.2435 31.4171 11.2523 31.0252 13.2316 32.937C14.5594 34.2216 15.9312 37.2755 16.2789 39.7253ZM54.1266 42.0648C54.161 44.6429 52.9134 45.1828 47.9594 44.7373C42.5545 44.2527 41.8361 43.6024 42.415 39.7253C42.7799 37.2755 44.0141 34.2056 45.1605 32.9049C46.8398 30.9967 47.9021 31.3405 50.6628 34.6866C52.5447 36.9672 54.1037 40.2884 54.1266 42.0648ZM25.5106 40.6162C25.5106 40.8959 24.221 41.5872 22.6448 42.1521C20.9158 42.7703 19.779 42.161 19.779 40.6162C19.779 39.0714 20.9158 38.4621 22.6448 39.0804C24.221 39.6452 25.5106 40.3365 25.5106 40.6162ZM38.8843 40.561C38.8843 42.2162 37.7724 42.7792 35.8581 42.0933C33.4221 41.222 33.3285 40.7178 35.3804 39.5044C38.7735 37.4982 38.8843 37.532 38.8843 40.561ZM34.6678 44.805C36.5955 45.9454 36.2803 47.2139 33.2349 50.5689L29.3317 54.87L25.4284 50.5689C21.359 46.0861 22.8416 43.344 29.3317 43.344C30.9079 43.344 33.3094 44.0015 34.6678 44.805Z" fill="#2B2B2B"/>
</svg>
