<svg width="58" height="58" viewBox="0 0 58 58" fill="none" xmlns="http://www.w3.org/2000/svg">
<path fill-rule="evenodd" clip-rule="evenodd" d="M40.6885 56.4217L40.5456 7.75344C40.1754 7.42563 39.4536 7.52462 39.1714 7.59765L37.2915 8.11371C37.0595 7.43741 36.7584 6.78125 36.3919 6.15334C35.0581 3.89763 33.1086 2.70486 30.7487 2.70161H30.7414C30.5838 2.70161 30.4281 2.71459 30.2705 2.72595L30.2522 2.72758C30.1839 2.65313 30.1131 2.5806 30.0396 2.51012C29.0136 1.53643 27.6944 1.06094 26.115 1.10151C23.0699 1.17941 20.0376 3.13004 17.5769 6.59475C15.8455 9.03384 14.5318 12.0961 14.1562 14.467L8.15936 16.1142C6.39494 16.6059 6.33997 16.6546 6.10728 18.1297C5.93322 19.2462 1.31421 50.922 1.31421 50.922L40.0252 56.8583L40.6885 56.4201V56.4217ZM28.0059 3.3264C27.491 3.02618 26.8882 2.88661 26.1737 2.8996C21.4722 3.01968 17.3717 9.53205 16.3255 13.8715L20.8291 12.6349L21.6334 12.4142C22.2234 9.65863 23.7038 6.79922 25.6405 4.95895C26.3176 4.29953 27.117 3.7474 28.0041 3.3264H28.0059ZM23.8596 11.8024L30.3236 10.027C30.3438 8.53402 30.1606 6.32698 29.3178 4.76908C28.42 5.09689 27.6651 5.67137 27.1228 6.1858C25.6698 7.57006 24.4844 9.68135 23.8614 11.8024H23.8596ZM32.3482 9.472L35.3531 8.64599C34.873 7.26335 33.7334 4.94597 31.423 4.55649C32.1412 6.20041 32.3262 8.10397 32.3482 9.472Z" fill="white"/>
<path d="M49.3615 11.3739C49.1306 11.3577 44.6564 11.296 44.6564 11.296C44.6564 11.296 40.9132 8.07311 40.5431 7.74368C40.3998 7.62655 40.2182 7.55268 40.0245 7.53271V56.8501L56.7984 53.1517C56.7984 53.1517 49.9533 12.1091 49.9093 11.8283C49.8882 11.7091 49.8225 11.5996 49.7229 11.5172C49.6233 11.4349 49.4954 11.3844 49.3597 11.3739H49.3615Z" fill="white"/>
<path d="M30.7285 19.0319L28.779 25.4972C28.779 25.4972 26.606 24.6192 24.0281 24.7637C20.2501 24.9746 20.2098 27.0892 20.2482 27.6198C20.4535 30.5084 29.03 31.1413 29.5119 37.9133C29.8912 43.241 26.3257 46.8875 21.1882 47.1731C15.0228 47.5188 11.6277 44.2926 11.6277 44.2926L12.9341 39.3625C12.9341 39.3625 16.3511 41.6491 19.0848 41.4949C20.873 41.3959 21.5106 40.1074 21.4465 39.1954C21.1772 35.4256 14.1928 35.6463 13.7512 29.4504C13.3811 24.233 17.2416 18.9507 25.7632 18.4736C29.0465 18.2886 30.7285 19.0335 30.7285 19.0335" fill="#2B2B2B"/>
</svg>
