<svg width="58" height="51" viewBox="0 0 58 51" fill="none" xmlns="http://www.w3.org/2000/svg">
<path d="M52.5156 35.8843L52.5103 35.8782C52.5934 35.5949 52.6793 35.3135 52.7523 35.0232C55.8747 22.5844 48.2538 7.87826 35.3575 0.135254C41.0089 7.79528 43.5077 17.0734 41.2875 25.1872C41.0896 25.911 40.8515 26.6056 40.5884 27.2805C40.3029 27.093 39.9431 26.8801 39.46 26.6138C39.46 26.6138 26.6317 18.6943 12.7276 4.68683C12.3628 4.31902 20.1419 15.8033 28.9701 25.129C24.8108 22.7951 13.2192 14.3627 5.88117 7.64739C6.78275 9.1507 7.85505 10.5982 9.0339 11.992C15.1618 19.7622 23.1534 29.3494 32.7277 36.7112C26.0007 40.8273 16.4953 41.1474 7.03114 36.7156C4.69031 35.6187 2.48963 34.2952 0.452515 32.7916C4.45879 39.1985 10.6288 44.7263 18.1384 47.9534C27.0937 51.8013 35.9992 51.5403 42.6321 48.0165L42.6269 48.0241C42.6572 48.005 42.6956 47.984 42.7271 47.9647C42.9995 47.8183 43.2698 47.6692 43.5341 47.5118C46.7209 45.8578 53.0156 44.1799 56.394 50.7526C57.2216 52.3612 58.9798 43.8367 52.5156 35.8843Z" fill="white"/>
</svg>
