<svg width="58" height="58" viewBox="0 0 58 58" fill="none" xmlns="http://www.w3.org/2000/svg">
<g clip-path="url(#clip0_25_200)">
<path d="M6.20325 0.903564H52.4364C55.3622 0.903564 57.7309 4.86647 57.7309 9.76229V39.2909C57.7309 44.1863 55.3624 48.1496 52.4364 48.1496H35.8568L38.1325 57.4742L28.1242 48.1496H6.22677C3.30098 48.1496 0.932298 44.1867 0.932298 39.2909V9.76229C0.909077 4.90545 3.27768 0.903564 6.20347 0.903564H6.20325Z" fill="white"/>
<path d="M4.16725 8.97781C4.4905 8.24381 4.97537 7.85747 5.62185 7.78022C6.79938 7.62569 7.46896 8.55286 7.63059 10.5617C8.34634 18.6361 9.13136 25.4738 9.96266 31.0757L15.0191 14.9661C15.4808 13.498 16.0581 12.7254 16.7507 12.6481C17.7667 12.5322 18.39 13.6139 18.644 15.8932C19.2212 21.0315 19.9601 25.3968 20.8375 29.1054C21.4378 19.2926 22.4537 12.2232 23.8853 7.85754C24.2316 6.77585 24.7396 6.235 25.4092 6.15771C25.9402 6.08044 26.4251 6.35087 26.8638 6.93035C27.3024 7.50985 27.5333 8.24385 27.5795 9.13239C27.6026 9.82779 27.5333 10.4072 27.3486 10.9867C26.4481 13.7683 25.7093 18.4429 25.1091 24.9328C24.5318 31.2301 24.324 36.1363 24.4626 39.6518C24.5087 40.6176 24.4164 41.4676 24.1855 42.2016C23.9084 43.0515 23.4928 43.5151 22.9618 43.5923C22.3615 43.6696 21.7381 43.206 21.1378 42.1629C18.9905 38.4928 17.2819 33.0072 16.0352 25.7054C14.5345 30.6503 13.4263 34.3592 12.7105 36.8317C11.3483 41.197 10.1939 43.4377 9.22406 43.5536C8.60065 43.6308 8.06961 42.7423 7.60783 40.8879C6.4303 35.8269 5.16039 26.0531 3.79811 11.5661C3.70575 10.5617 3.84428 9.67313 4.16752 8.97774L4.16725 8.97781ZM53.7862 15.043C52.955 12.6092 51.7312 11.141 50.092 10.5615C49.6533 10.407 49.2377 10.3297 48.8452 10.3297C46.6287 10.3297 44.8278 12.2613 43.4194 16.1246C42.2188 19.4084 41.6185 23.04 41.6185 27.0188C41.6185 29.9935 41.9879 32.5431 42.7267 34.6681C43.5579 37.1019 44.7816 38.5701 46.4209 39.1496C46.8595 39.3041 47.2752 39.3814 47.6677 39.3814C49.9072 39.3814 51.7081 37.4498 53.0935 33.5865C54.2941 30.2641 54.8944 26.6325 54.8944 22.6537C54.9175 19.6403 54.525 17.1293 53.7862 15.043ZM50.877 25.7442C50.5538 28.2939 49.9765 30.1867 49.1223 31.4619C48.4527 32.4663 47.8293 32.8913 47.2521 32.6981C46.6979 32.505 46.2361 31.6937 45.8898 30.187C45.6128 28.9894 45.4742 27.7918 45.4742 26.6715C45.4742 25.7057 45.5204 24.7399 45.6358 23.8514C45.8436 22.2674 46.2361 20.7221 46.8595 19.254C47.6215 17.361 48.4296 16.5884 49.2608 16.8588C49.815 17.052 50.2767 17.8633 50.6231 19.3699C50.9001 20.5675 51.0387 21.7651 51.0387 22.8854C51.0387 23.8899 50.9925 24.8557 50.877 25.7442L50.877 25.7442ZM39.3325 15.043C38.5013 12.6092 37.2545 11.141 35.6383 10.5615C35.1997 10.407 34.7841 10.3297 34.3915 10.3297C32.175 10.3297 30.3741 12.2613 28.9657 16.1246C27.7651 19.4084 27.1648 23.04 27.1648 27.0188C27.1648 29.9935 27.5342 32.5431 28.273 34.6681C29.1042 37.1019 30.328 38.5701 31.9672 39.1496C32.4059 39.3041 32.8215 39.3814 33.214 39.3814C35.4535 39.3814 37.2544 37.4498 38.6398 33.5865C39.8404 30.2641 40.4407 26.6325 40.4407 22.6537C40.4407 19.6403 40.0713 17.1293 39.3325 15.043ZM36.4002 25.7442C36.077 28.2939 35.4998 30.1867 34.6455 31.4619C33.9759 32.4663 33.3525 32.8913 32.7753 32.6981C32.2211 32.505 31.7594 31.6937 31.4131 30.187C31.136 28.9894 30.9974 27.7918 30.9974 26.6715C30.9974 25.7057 31.0436 24.7399 31.1591 23.8514C31.3669 22.2674 31.7594 20.7221 32.3828 19.254C33.1447 17.361 33.9528 16.5884 34.7841 16.8588C35.3382 17.052 35.8 17.8633 36.1463 19.3699C36.4234 20.5675 36.5619 21.7651 36.5619 22.8854C36.585 23.8899 36.5157 24.8557 36.4003 25.7442L36.4002 25.7442Z" fill="#2B2B2B"/>
</g>
<defs>
<clipPath id="clip0_25_200">
<rect width="56.7986" height="56.7986" fill="white" transform="translate(0.932373 0.903564)"/>
</clipPath>
</defs>
</svg>
