<svg width="58" height="58" viewBox="0 0 58 58" fill="none" xmlns="http://www.w3.org/2000/svg">
<g clip-path="url(#clip0_25_183)">
<path d="M51.4417 16.9586C53.4347 20.5952 54.5689 24.7686 54.5689 29.2079C54.5689 38.6277 49.4639 46.8518 41.8731 51.2776L49.6716 28.7295C51.1282 25.0868 51.6133 22.1742 51.6133 19.5843C51.6133 18.6443 51.5513 17.7718 51.4417 16.9586ZM32.5551 17.2366C34.0922 17.1558 35.4773 16.9941 35.4773 16.9941C36.8531 16.8312 36.6909 14.8093 35.3145 14.8898C35.3145 14.8898 31.1787 15.2144 28.5089 15.2144C26.0001 15.2144 21.7844 14.8898 21.7844 14.8898C20.4074 14.8093 20.246 16.9127 21.6224 16.9941C21.6224 16.9941 22.9249 17.1558 24.3006 17.2366L28.2783 28.1362L22.6898 44.8942L13.3923 17.2366C14.9307 17.1558 16.3143 16.9941 16.3143 16.9941C17.6892 16.8312 17.5269 14.8093 16.1511 14.8898C16.1511 14.8898 12.0162 15.2144 9.34609 15.2144C8.86705 15.2144 8.30237 15.2027 7.70283 15.1835C12.2684 8.25222 20.1156 3.67498 29.0363 3.67498C35.6832 3.67498 41.7357 6.21648 46.2781 10.3787C46.1681 10.3721 46.0608 10.3583 45.9475 10.3583C43.4394 10.3583 41.6597 12.5431 41.6597 14.8898C41.6597 16.9941 42.8738 18.7744 44.1678 20.8783C45.1388 22.579 46.273 24.7635 46.273 27.9202C46.273 30.1053 45.4324 32.6414 44.3301 36.1743L41.7826 44.6836L32.5551 17.2366ZM29.0363 54.7429C26.5299 54.7429 24.111 54.3754 21.8228 53.7025L29.4846 31.4414L37.3325 52.9434C37.3842 53.0696 37.4476 53.1859 37.5152 53.2953C34.8613 54.2296 32.0096 54.7429 29.0363 54.7429ZM3.50334 29.2079C3.50334 25.5061 4.29732 21.9921 5.71428 18.8168L17.8941 52.1873C9.37584 48.0491 3.50334 39.3144 3.50334 29.2079ZM29.0363 0.809502C13.377 0.809502 0.637268 13.5489 0.637268 29.2079C0.637268 44.8675 13.377 57.6084 29.0363 57.6084C44.6952 57.6084 57.4356 44.8675 57.4356 29.2079C57.4356 13.5489 44.6952 0.809502 29.0363 0.809502Z" fill="white"/>
</g>
<defs>
<clipPath id="clip0_25_183">
<rect width="56.7986" height="56.7986" fill="white" transform="translate(0.452393 0.625977)"/>
</clipPath>
</defs>
</svg>
