<svg width="18" height="18" viewBox="0 0 18 18" fill="none" xmlns="http://www.w3.org/2000/svg">
<path fill-rule="evenodd" clip-rule="evenodd" d="M17.0848 14.9326C17.5298 10.6559 17.5298 6.34456 17.0848 2.06786C16.9261 0.542816 15.1678 -0.229699 13.9372 0.685021L9.83356 3.73543C8.58311 4.66494 7.06648 5.16689 5.5084 5.16689H1.6792C0.988844 5.16689 0.429199 5.72653 0.429199 6.41689V10.5836C0.429199 11.2739 0.988842 11.8336 1.6792 11.8336H2.30348L1.45812 14.9885C1.36392 15.34 1.53573 15.7085 1.86559 15.8623L5.54674 17.5789C5.74766 17.6726 5.97974 17.6726 6.18067 17.5789C6.3816 17.4852 6.53078 17.3074 6.58815 17.0933L7.85085 12.3809C7.86426 12.3308 7.87228 12.2806 7.87526 12.2308C8.57273 12.4717 9.23377 12.8192 9.83356 13.265L13.9372 16.3154C15.1677 17.2302 16.9261 16.4576 17.0848 14.9326ZM15.5928 2.2231C16.0271 6.39658 16.0271 10.6039 15.5928 14.7774C15.5545 15.146 15.1295 15.3327 14.8321 15.1116L10.7284 12.0612C9.21926 10.9394 7.38884 10.3336 5.50839 10.3336L1.9292 10.3336L1.9292 6.66689H5.5084C7.38884 6.66689 9.21926 6.06109 10.7284 4.93927L14.8321 1.88886C15.1295 1.66777 15.5545 1.85448 15.5928 2.2231ZM6.43615 11.8932C6.12975 11.8536 5.8199 11.8336 5.50839 11.8336H3.85639L3.06989 14.7688L5.3706 15.8417L6.40196 11.9926C6.41118 11.9582 6.42264 11.925 6.43615 11.8932Z" fill="#FF7234"/>
</svg>
