<svg width="18" height="18" viewBox="0 0 18 18" fill="none" xmlns="http://www.w3.org/2000/svg">
<path d="M13.75 8.00012C13.75 8.41434 13.4142 8.75012 13 8.75012H5C4.58579 8.75012 4.25 8.41434 4.25 8.00012C4.25 7.58591 4.58579 7.25012 5 7.25012H13C13.4142 7.25012 13.75 7.58591 13.75 8.00012Z" fill="white"/>
<path fill-rule="evenodd" clip-rule="evenodd" d="M1.38558 5.14682L2.57431 1.89923C2.87389 1.08078 3.60048 0.494311 4.46371 0.374183C7.47342 -0.044649 10.5266 -0.0446499 13.5364 0.374182C14.3996 0.494311 15.1262 1.08079 15.4258 1.89924L16.6146 5.14713C16.8369 5.49401 16.99 5.89054 17.0543 6.31802L17.1563 6.99586C17.5561 9.65449 17.5187 12.3606 17.0456 15.0072C16.8359 16.1805 15.8723 17.0717 14.6862 17.1894L13.4558 17.3115C10.4925 17.6057 7.50743 17.6057 4.54417 17.3115L3.3137 17.1894C2.12763 17.0717 1.16407 16.1805 0.954342 15.0072C0.48127 12.3606 0.443892 9.65449 0.843686 6.99586L0.945617 6.31802C1.00992 5.89042 1.16314 5.49377 1.38558 5.14682ZM4.67046 1.85987C7.543 1.46012 10.4571 1.46012 13.3296 1.85987C13.6437 1.90358 13.9081 2.117 14.0172 2.41483L14.5234 3.79781C14.478 3.7912 14.4323 3.78561 14.3864 3.78105L13.4082 3.68396C10.4766 3.39299 7.52338 3.39299 4.59179 3.68396L3.6136 3.78105C3.56765 3.78561 3.52201 3.7912 3.4767 3.79779L3.98291 2.41482C4.09193 2.11699 4.35633 1.90358 4.67046 1.85987ZM2.68566 5.9011L2.70432 5.90793L2.72747 5.84468C2.97321 5.52882 3.34233 5.31534 3.76175 5.27371L4.73994 5.17662C7.573 4.89543 10.4269 4.89543 13.26 5.17662L14.2382 5.27371C14.6577 5.31535 15.0269 5.52892 15.2726 5.84488L15.2957 5.90793L15.3143 5.90112C15.4454 6.08701 15.5354 6.30456 15.571 6.54108L15.6729 7.21892C16.0484 9.71593 16.0133 12.2575 15.569 14.7432C15.4774 15.2559 15.0563 15.6453 14.5381 15.6967L13.3076 15.8189C10.4429 16.1032 7.55705 16.1032 4.69232 15.8189L3.46186 15.6967C2.9436 15.6453 2.52258 15.2559 2.43094 14.7432C1.98662 12.2575 1.95152 9.71593 2.32701 7.21892L2.42894 6.54108C2.46451 6.30456 2.55453 6.087 2.68566 5.9011Z" fill="white"/>
</svg>
