<svg width="16" height="20" viewBox="0 0 16 20" fill="none" xmlns="http://www.w3.org/2000/svg">
<path fill-rule="evenodd" clip-rule="evenodd" d="M13.9859 2.4238C10.0077 1.97918 5.99236 1.97918 2.01419 2.4238C1.74502 2.45388 1.6154 2.76953 1.78574 2.9801L5.30276 7.32765C6.56266 8.88507 7.25002 10.8276 7.25002 12.8308V15.7201L8.75002 16.8201V12.8308C8.75002 10.8276 9.43738 8.88507 10.6973 7.32765L14.2143 2.9801C14.3846 2.76953 14.255 2.45388 13.9859 2.4238ZM1.84758 0.933078C5.93648 0.476083 10.0636 0.476083 14.1525 0.933078C15.5994 1.09479 16.2962 2.79158 15.3805 3.92351L11.8635 8.27106C10.8195 9.56149 10.25 11.171 10.25 12.8308V18.3001C10.25 18.5827 10.0911 18.8414 9.83903 18.9691C9.58692 19.0969 9.28441 19.0721 9.0565 18.9049L6.0565 16.7049C5.86384 16.5636 5.75002 16.339 5.75002 16.1001V12.8308C5.75002 11.171 5.18049 9.56149 4.13658 8.27106L0.619559 3.92351C-0.296131 2.79158 0.400653 1.09479 1.84758 0.933078Z" fill="#FF7234"/>
</svg>
