<svg width="24" height="24" viewBox="0 0 24 24" fill="none" xmlns="http://www.w3.org/2000/svg">
<g clip-path="url(#clip0_232_27657)">
<path d="M15.1508 8.40042C14.3843 8.39779 13.6249 8.54632 12.9159 8.8375C12.2069 9.12868 11.5623 9.55681 11.019 10.0974C10.4756 10.6379 10.0442 11.2803 9.74934 11.9878C9.45452 12.6953 9.30209 13.454 9.30078 14.2204V20.1004C9.30078 20.3391 9.3956 20.568 9.56439 20.7368C9.73317 20.9056 9.96209 21.0004 10.2008 21.0004H12.3008C12.5395 21.0004 12.7684 20.9056 12.9372 20.7368C13.106 20.568 13.2008 20.3391 13.2008 20.1004V14.2204C13.2006 13.9478 13.2578 13.6782 13.3688 13.4293C13.4798 13.1803 13.642 12.9575 13.8448 12.7754C14.0477 12.5933 14.2867 12.456 14.5461 12.3724C14.8056 12.2889 15.0798 12.2609 15.3508 12.2904C15.8368 12.3516 16.2834 12.5891 16.606 12.9577C16.9286 13.3264 17.1046 13.8006 17.1008 14.2904V20.1004C17.1008 20.3391 17.1956 20.568 17.3644 20.7368C17.5332 20.9056 17.7621 21.0004 18.0008 21.0004H20.1008C20.3395 21.0004 20.5684 20.9056 20.7372 20.7368C20.906 20.568 21.0008 20.3391 21.0008 20.1004V14.2204C20.9995 13.454 20.847 12.6953 20.5522 11.9878C20.2574 11.2803 19.826 10.6379 19.2826 10.0974C18.7393 9.55681 18.0946 9.12868 17.3857 8.8375C16.6767 8.54632 15.9172 8.39779 15.1508 8.40042Z" fill="white"/>
<path d="M6.6 9.2998H3.9C3.40294 9.2998 3 9.70275 3 10.1998V20.0998C3 20.5969 3.40294 20.9998 3.9 20.9998H6.6C7.09706 20.9998 7.5 20.5969 7.5 20.0998V10.1998C7.5 9.70275 7.09706 9.2998 6.6 9.2998Z" fill="white"/>
<path d="M5.25 7.5C6.49264 7.5 7.5 6.49264 7.5 5.25C7.5 4.00736 6.49264 3 5.25 3C4.00736 3 3 4.00736 3 5.25C3 6.49264 4.00736 7.5 5.25 7.5Z" fill="white"/>
</g>
<defs>
<clipPath id="clip0_232_27657">
<rect width="24" height="24" fill="white"/>
</clipPath>
</defs>
</svg>
