<svg width="136" height="27" viewBox="0 0 136 27" fill="none" xmlns="http://www.w3.org/2000/svg">
<path d="M13.5 0L16.5309 9.32827H26.3393L18.4042 15.0935L21.4351 24.4217L13.5 18.6565L5.5649 24.4217L8.59584 15.0935L0.660737 9.32827H10.4691L13.5 0Z" fill="#FF7234"/>
<path d="M40.5 0L43.5309 9.32827H53.3393L45.4042 15.0935L48.4351 24.4217L40.5 18.6565L32.5649 24.4217L35.5958 15.0935L27.6607 9.32827H37.4691L40.5 0Z" fill="#FF7234"/>
<path d="M68 0L70.9187 9.32827H80.3637L72.7225 15.0935L75.6412 24.4217L68 18.6565L60.3588 24.4217L63.2775 15.0935L55.6363 9.32827H65.0813L68 0Z" fill="#FF7234"/>
<path d="M95.5 0L98.5309 9.32827H108.339L100.404 15.0935L103.435 24.4217L95.5 18.6565L87.5649 24.4217L90.5958 15.0935L82.6607 9.32827H92.4691L95.5 0Z" fill="#FF7234"/>
<path d="M122.5 0L125.531 9.32827H135.339L127.404 15.0935L130.435 24.4217L122.5 18.6565L114.565 24.4217L117.596 15.0935L109.661 9.32827H119.469L122.5 0Z" fill="#FF7234"/>
</svg>
